<svg id="svg" version="1.1" xmlns="http://www.w3.org/2000/svg" xmlns:xlink="http://www.w3.org/1999/xlink" width="400" height="122.47644683714671" viewBox="0, 0, 400,122.47644683714671"><g id="svgg"><path id="path0" d="M316.875 53.296 C 316.210 53.325,315.667 53.410,315.667 53.486 C 315.667 53.562,315.367 53.672,315.000 53.731 C 314.633 53.789,314.333 53.911,314.333 54.002 C 314.333 54.093,314.183 54.167,314.000 54.167 C 313.817 54.167,313.667 54.242,313.667 54.333 C 313.667 54.425,313.581 54.500,313.476 54.500 C 313.181 54.500,312.355 55.439,312.237 55.910 C 312.178 56.143,312.072 56.333,312.000 56.333 C 311.726 56.333,311.426 59.101,311.683 59.260 C 311.766 59.311,311.833 59.536,311.833 59.760 C 311.833 59.984,311.908 60.167,312.000 60.167 C 312.092 60.167,312.167 60.250,312.167 60.352 C 312.167 60.749,313.672 62.022,314.253 62.116 C 314.572 62.168,314.833 62.275,314.833 62.355 C 314.833 62.435,315.021 62.500,315.250 62.500 C 315.479 62.500,315.667 62.569,315.667 62.653 C 315.667 62.738,316.154 62.859,316.750 62.923 C 317.346 62.987,317.833 63.105,317.833 63.186 C 317.833 63.267,318.016 63.333,318.240 63.333 C 318.464 63.333,318.690 63.403,318.742 63.487 C 318.794 63.572,319.069 63.692,319.352 63.754 C 320.757 64.063,320.828 65.135,319.487 65.809 C 318.722 66.194,314.895 65.817,314.500 65.317 C 314.454 65.259,314.229 65.153,314.000 65.082 C 313.771 65.011,313.458 64.808,313.304 64.632 C 312.885 64.150,312.443 64.415,312.233 65.272 C 312.168 65.535,312.071 65.787,312.016 65.833 C 311.521 66.248,311.164 67.833,311.565 67.833 C 311.712 67.833,311.833 67.891,311.833 67.961 C 311.833 68.107,313.062 68.667,313.384 68.667 C 313.503 68.667,313.683 68.750,313.785 68.851 C 313.886 68.953,314.464 69.076,315.068 69.124 C 315.672 69.173,316.167 69.277,316.167 69.356 C 316.167 69.435,316.954 69.500,317.917 69.500 C 318.879 69.500,319.667 69.434,319.667 69.353 C 319.667 69.271,320.079 69.154,320.583 69.091 C 321.087 69.028,321.500 68.912,321.500 68.835 C 321.500 68.757,321.715 68.646,321.977 68.588 C 322.239 68.531,322.609 68.319,322.799 68.117 C 322.988 67.915,323.243 67.660,323.363 67.550 C 323.788 67.162,323.988 66.858,324.095 66.431 C 324.154 66.194,324.270 66.000,324.351 66.000 C 324.433 66.000,324.500 65.325,324.500 64.500 C 324.500 63.611,324.432 63.000,324.333 63.000 C 324.242 63.000,324.167 62.853,324.167 62.673 C 324.167 62.242,322.834 60.882,322.274 60.741 C 322.032 60.680,321.833 60.569,321.833 60.494 C 321.833 60.419,321.421 60.306,320.917 60.243 C 320.412 60.180,320.000 60.062,320.000 59.981 C 320.000 59.900,319.737 59.833,319.417 59.833 C 319.096 59.833,318.833 59.767,318.833 59.686 C 318.833 59.605,318.421 59.487,317.917 59.424 C 317.412 59.361,317.000 59.240,317.000 59.155 C 317.000 59.070,316.891 59.000,316.758 59.000 C 316.304 59.000,315.701 58.229,315.790 57.763 C 315.835 57.527,315.933 57.333,316.008 57.333 C 316.082 57.333,316.274 57.202,316.435 57.042 C 316.773 56.705,320.262 56.622,320.472 56.946 C 320.533 57.041,320.865 57.170,321.208 57.234 C 321.552 57.297,321.833 57.420,321.833 57.508 C 321.833 57.595,322.058 57.667,322.333 57.667 C 322.667 57.667,322.833 57.583,322.833 57.417 C 322.833 57.279,322.890 57.167,322.959 57.167 C 323.105 57.167,323.431 56.458,323.592 55.790 C 323.654 55.537,323.770 55.289,323.852 55.239 C 324.200 55.023,323.974 54.552,323.417 54.333 C 323.096 54.207,322.833 54.056,322.833 53.997 C 322.833 53.937,322.740 53.882,322.625 53.873 C 322.072 53.832,321.074 53.602,321.000 53.499 C 320.893 53.350,318.434 53.229,316.875 53.296 M209.603 53.592 C 209.546 53.740,209.500 57.304,209.500 61.514 L 209.500 69.167 215.417 69.167 L 221.333 69.167 221.333 67.417 L 221.333 65.667 217.502 65.667 L 213.671 65.667 213.627 59.542 L 213.583 53.417 211.645 53.370 C 209.987 53.330,209.691 53.362,209.603 53.592 M224.333 61.250 L 224.333 69.167 230.422 69.167 L 236.512 69.167 236.464 67.458 L 236.417 65.750 232.375 65.705 L 228.333 65.661 228.333 64.247 L 228.333 62.833 231.833 62.833 L 235.333 62.833 235.333 61.167 L 235.333 59.500 231.833 59.500 L 228.333 59.500 228.333 58.167 L 228.333 56.833 232.250 56.833 L 236.167 56.833 236.167 55.083 L 236.167 53.333 230.250 53.333 L 224.333 53.333 224.333 61.250 M245.667 53.583 C 245.667 53.721,245.600 53.833,245.519 53.833 C 245.437 53.833,245.321 54.096,245.261 54.417 C 245.201 54.737,245.098 55.000,245.033 55.000 C 244.908 55.000,244.612 55.633,244.409 56.333 C 244.343 56.563,244.238 56.788,244.177 56.833 C 243.997 56.968,243.500 58.111,243.500 58.390 C 243.500 58.532,243.431 58.690,243.346 58.742 C 243.262 58.794,243.143 59.061,243.083 59.335 C 243.023 59.609,242.923 59.833,242.861 59.833 C 242.727 59.833,242.396 60.566,242.241 61.208 C 242.180 61.460,242.067 61.667,241.989 61.667 C 241.912 61.667,241.799 61.929,241.739 62.250 C 241.679 62.571,241.563 62.833,241.481 62.833 C 241.400 62.833,241.333 63.021,241.333 63.250 C 241.333 63.479,241.264 63.667,241.180 63.667 C 241.096 63.667,240.977 63.892,240.917 64.167 C 240.856 64.442,240.750 64.667,240.680 64.667 C 240.611 64.667,240.414 65.079,240.243 65.583 C 240.071 66.087,239.880 66.500,239.817 66.500 C 239.755 66.500,239.655 66.762,239.594 67.083 C 239.534 67.404,239.413 67.667,239.326 67.667 C 239.238 67.667,239.167 67.854,239.167 68.083 C 239.167 68.313,239.092 68.500,239.000 68.500 C 238.908 68.500,238.833 68.650,238.833 68.833 C 238.833 69.149,238.944 69.167,240.904 69.167 L 242.976 69.167 243.233 68.650 C 243.375 68.366,243.539 67.878,243.597 67.567 C 243.656 67.255,243.770 67.000,243.852 67.000 C 243.933 67.000,244.000 66.887,244.000 66.750 C 244.000 66.612,244.075 66.500,244.167 66.500 C 244.258 66.500,244.333 66.387,244.333 66.250 C 244.333 66.036,244.815 66.000,247.667 66.000 C 250.519 66.000,251.000 66.036,251.000 66.250 C 251.000 66.387,251.065 66.500,251.145 66.500 C 251.225 66.500,251.339 66.800,251.397 67.167 C 251.456 67.533,251.578 67.833,251.669 67.833 C 251.759 67.833,251.833 68.021,251.833 68.250 C 251.833 68.479,251.908 68.667,252.000 68.667 C 252.092 68.667,252.167 68.779,252.167 68.917 C 252.167 69.126,252.512 69.167,254.272 69.167 L 256.377 69.167 256.283 68.462 C 256.231 68.074,256.108 67.731,256.011 67.698 C 255.913 67.666,255.833 67.563,255.833 67.470 C 255.833 67.377,255.712 67.027,255.564 66.692 C 254.914 65.228,254.833 65.023,254.833 64.850 C 254.833 64.749,254.758 64.667,254.667 64.667 C 254.575 64.667,254.500 64.554,254.500 64.417 C 254.500 64.279,254.426 64.167,254.335 64.167 C 254.245 64.167,254.123 63.867,254.064 63.500 C 254.005 63.133,253.895 62.833,253.820 62.833 C 253.744 62.833,253.633 62.571,253.572 62.250 C 253.512 61.929,253.396 61.667,253.315 61.667 C 253.233 61.667,253.167 61.554,253.167 61.417 C 253.167 61.279,253.101 61.167,253.021 61.167 C 252.941 61.167,252.828 60.867,252.769 60.500 C 252.711 60.133,252.595 59.833,252.511 59.833 C 252.428 59.833,252.311 59.609,252.250 59.335 C 252.190 59.061,252.072 58.794,251.987 58.742 C 251.903 58.690,251.833 58.501,251.833 58.323 C 251.833 58.146,251.767 58.000,251.685 58.000 C 251.604 58.000,251.488 57.737,251.428 57.417 C 251.367 57.096,251.247 56.833,251.159 56.833 C 251.072 56.833,251.000 56.721,251.000 56.583 C 251.000 56.446,250.935 56.333,250.855 56.333 C 250.775 56.333,250.661 56.033,250.603 55.667 C 250.544 55.300,250.422 55.000,250.331 55.000 C 250.241 55.000,250.167 54.926,250.167 54.834 C 250.167 54.743,250.036 54.368,249.877 54.001 L 249.588 53.333 247.627 53.333 C 245.996 53.333,245.667 53.375,245.667 53.583 M259.167 61.265 L 259.167 69.196 264.173 69.140 C 267.589 69.101,269.217 69.025,269.298 68.899 C 269.363 68.798,269.707 68.661,270.062 68.596 C 270.783 68.463,271.349 68.189,271.550 67.875 C 271.623 67.760,271.773 67.665,271.883 67.662 C 272.132 67.657,273.667 66.109,273.667 65.863 C 273.667 65.764,273.760 65.623,273.875 65.550 C 274.237 65.318,274.515 64.669,274.616 63.821 C 274.669 63.369,274.778 63.000,274.857 63.000 C 274.935 63.000,275.000 62.212,275.000 61.250 C 275.000 60.288,274.935 59.500,274.855 59.500 C 274.776 59.500,274.669 59.189,274.618 58.809 C 274.567 58.429,274.459 58.073,274.379 58.018 C 274.298 57.962,274.102 57.635,273.942 57.292 C 273.782 56.948,273.580 56.667,273.492 56.667 C 273.405 56.667,273.333 56.551,273.333 56.409 C 273.333 56.118,272.552 55.333,272.262 55.333 C 272.159 55.333,271.967 55.186,271.838 55.006 C 271.708 54.826,271.391 54.633,271.134 54.576 C 270.877 54.520,270.667 54.413,270.667 54.338 C 270.667 54.264,270.460 54.145,270.208 54.075 C 269.956 54.005,269.637 53.916,269.500 53.877 C 269.362 53.837,268.781 53.765,268.208 53.716 C 267.635 53.668,267.167 53.562,267.167 53.481 C 267.167 53.399,265.371 53.333,263.167 53.333 L 259.167 53.333 259.167 61.265 M278.667 61.250 L 278.667 69.167 284.750 69.167 L 290.833 69.167 290.833 67.417 L 290.833 65.667 286.833 65.667 L 282.833 65.667 282.833 64.250 L 282.833 62.833 286.333 62.833 L 289.833 62.833 289.833 61.167 L 289.833 59.500 286.333 59.500 L 282.833 59.500 282.833 58.167 L 282.833 56.833 286.667 56.833 L 290.500 56.833 290.500 55.083 L 290.500 53.333 284.583 53.333 L 278.667 53.333 278.667 61.250 M294.833 61.250 L 294.833 69.167 296.917 69.167 L 299.000 69.167 299.000 67.083 L 299.000 65.000 300.296 65.000 C 301.539 65.000,302.167 65.260,302.167 65.774 C 302.167 65.832,302.345 66.044,302.564 66.247 C 302.782 66.449,303.012 66.776,303.075 66.974 C 303.138 67.172,303.259 67.333,303.345 67.333 C 303.430 67.333,303.500 67.446,303.500 67.583 C 303.500 67.721,303.570 67.833,303.655 67.833 C 303.741 67.833,303.864 68.002,303.929 68.208 C 304.193 69.042,304.563 69.167,306.776 69.167 C 308.964 69.167,309.307 68.997,308.583 68.274 C 308.446 68.136,308.333 67.943,308.333 67.845 C 308.333 67.747,308.260 67.667,308.170 67.667 C 308.080 67.667,307.959 67.479,307.902 67.250 C 307.844 67.021,307.747 66.833,307.686 66.833 C 307.626 66.833,307.437 66.575,307.267 66.260 C 307.097 65.944,306.855 65.647,306.729 65.598 C 306.603 65.550,306.500 65.396,306.500 65.255 C 306.500 65.115,306.436 65.000,306.359 65.000 C 305.588 65.000,306.141 63.693,307.033 63.407 C 307.189 63.357,307.368 63.155,307.430 62.958 C 307.493 62.760,307.647 62.496,307.772 62.371 C 307.897 62.245,308.000 62.036,308.000 61.905 C 308.000 61.774,308.075 61.667,308.167 61.667 C 308.258 61.667,308.333 61.479,308.333 61.250 C 308.333 61.021,308.408 60.833,308.500 60.833 C 308.599 60.833,308.667 60.194,308.667 59.250 C 308.667 58.306,308.599 57.667,308.500 57.667 C 308.408 57.667,308.333 57.479,308.333 57.250 C 308.333 57.021,308.266 56.833,308.185 56.833 C 308.103 56.833,307.987 56.636,307.926 56.395 C 307.798 55.884,306.715 54.757,306.193 54.592 C 305.995 54.529,305.833 54.408,305.833 54.322 C 305.833 54.237,305.698 54.167,305.533 54.167 C 305.368 54.167,305.149 54.082,305.045 53.979 C 304.942 53.875,304.325 53.752,303.674 53.706 C 303.024 53.659,302.452 53.556,302.403 53.477 C 302.354 53.398,300.631 53.333,298.573 53.333 L 294.833 53.333 294.833 61.250 M328.333 61.250 L 328.333 69.167 330.333 69.167 L 332.333 69.167 332.333 66.083 L 332.333 63.000 335.417 63.000 L 338.500 63.000 338.500 66.083 L 338.500 69.167 340.500 69.167 L 342.500 69.167 342.500 61.250 L 342.500 53.333 340.500 53.333 L 338.500 53.333 338.500 56.417 L 338.500 59.500 335.417 59.500 L 332.333 59.500 332.333 56.417 L 332.333 53.333 330.333 53.333 L 328.333 53.333 328.333 61.250 M347.167 61.250 L 347.167 69.167 349.167 69.167 L 351.167 69.167 351.167 61.250 L 351.167 53.333 349.167 53.333 L 347.167 53.333 347.167 61.250 M356.000 61.250 L 356.000 69.167 358.000 69.167 L 360.000 69.167 360.000 67.083 L 360.000 65.000 362.583 65.000 C 364.194 65.000,365.167 64.937,365.167 64.833 C 365.167 64.742,365.392 64.667,365.667 64.667 C 365.942 64.667,366.167 64.601,366.167 64.521 C 366.167 64.441,366.374 64.334,366.627 64.283 C 367.147 64.179,368.833 62.621,368.833 62.245 C 368.833 62.110,368.890 62.000,368.959 62.000 C 369.502 62.000,369.889 57.380,369.361 57.204 C 369.254 57.168,369.167 57.033,369.167 56.903 C 369.167 56.773,369.101 56.667,369.021 56.667 C 368.941 56.667,368.829 56.435,368.772 56.153 C 368.671 55.646,368.097 55.016,367.726 55.006 C 367.621 55.002,367.492 54.887,367.440 54.750 C 367.387 54.612,367.229 54.500,367.089 54.500 C 366.948 54.500,366.833 54.425,366.833 54.333 C 366.833 54.242,366.690 54.167,366.514 54.167 C 366.338 54.167,366.168 54.087,366.136 53.990 C 366.103 53.893,365.497 53.770,364.788 53.716 C 364.080 53.662,363.500 53.554,363.500 53.476 C 363.500 53.398,361.813 53.333,359.750 53.333 L 356.000 53.333 356.000 61.250 M267.000 56.978 C 267.000 57.058,267.317 57.165,267.705 57.217 C 268.092 57.269,268.436 57.392,268.469 57.489 C 268.501 57.587,268.600 57.667,268.688 57.667 C 269.013 57.667,270.333 58.947,270.333 59.263 C 270.333 59.393,270.408 59.500,270.500 59.500 C 270.592 59.500,270.667 59.762,270.667 60.083 C 270.667 60.404,270.742 60.667,270.833 60.667 C 270.925 60.667,271.000 60.967,271.000 61.333 C 271.000 61.700,270.925 62.000,270.833 62.000 C 270.742 62.000,270.667 62.225,270.667 62.500 C 270.667 62.775,270.592 63.000,270.500 63.000 C 270.408 63.000,270.333 63.152,270.333 63.339 C 270.333 63.525,270.228 63.718,270.098 63.767 C 269.969 63.817,269.818 64.040,269.762 64.262 C 269.700 64.510,269.540 64.667,269.348 64.667 C 269.176 64.667,268.992 64.779,268.940 64.917 C 268.887 65.054,268.735 65.167,268.602 65.167 C 268.470 65.167,268.330 65.260,268.292 65.373 C 268.243 65.522,267.512 65.597,265.695 65.641 L 263.167 65.703 263.167 61.268 L 263.167 56.833 265.083 56.833 C 266.137 56.833,267.000 56.898,267.000 56.978 M302.500 56.985 C 302.500 57.069,302.797 57.188,303.160 57.249 C 303.635 57.329,303.851 57.461,303.932 57.722 C 303.994 57.921,304.129 58.137,304.231 58.202 C 304.764 58.543,304.440 60.155,303.696 60.863 L 302.975 61.549 300.988 61.631 L 299.000 61.712 299.000 59.273 L 299.000 56.833 300.750 56.833 C 301.712 56.833,302.500 56.902,302.500 56.985 M363.500 57.000 C 363.500 57.092,363.685 57.167,363.910 57.167 C 364.136 57.167,364.417 57.283,364.535 57.425 C 364.653 57.567,364.870 57.810,365.018 57.966 C 365.803 58.799,365.245 61.167,364.264 61.167 C 364.134 61.167,364.000 61.251,363.965 61.354 C 363.926 61.471,363.175 61.573,361.952 61.627 L 360.000 61.713 360.000 59.273 L 360.000 56.833 361.750 56.833 C 362.806 56.833,363.500 56.899,363.500 57.000 M247.936 58.833 C 247.995 59.200,248.108 59.500,248.188 59.500 C 248.268 59.500,248.333 59.650,248.333 59.833 C 248.333 60.017,248.402 60.167,248.485 60.167 C 248.569 60.167,248.688 60.467,248.750 60.833 C 248.812 61.200,248.922 61.500,248.994 61.500 C 249.067 61.500,249.202 61.800,249.295 62.167 L 249.465 62.833 247.554 62.833 C 245.637 62.833,245.224 62.615,245.981 62.000 C 246.203 61.820,246.483 61.178,246.590 60.604 C 246.653 60.272,246.764 60.000,246.837 60.000 C 246.911 60.000,247.021 59.700,247.083 59.333 C 247.145 58.967,247.264 58.667,247.348 58.667 C 247.432 58.667,247.500 58.554,247.500 58.417 C 247.500 57.882,247.835 58.202,247.936 58.833 M39.500 68.750 C 39.500 68.887,39.425 69.000,39.333 69.000 C 39.242 69.000,39.167 69.188,39.167 69.417 C 39.167 69.646,39.098 69.833,39.015 69.833 C 38.931 69.833,38.812 70.133,38.750 70.500 C 38.688 70.867,38.579 71.167,38.507 71.167 C 38.435 71.167,38.328 71.467,38.269 71.833 C 38.211 72.200,38.089 72.500,37.998 72.500 C 37.907 72.500,37.833 72.688,37.833 72.917 C 37.833 73.146,37.759 73.333,37.669 73.333 C 37.578 73.333,37.456 73.633,37.397 74.000 C 37.339 74.367,37.237 74.667,37.172 74.667 C 37.107 74.667,36.914 75.079,36.743 75.583 C 36.571 76.087,36.381 76.500,36.320 76.500 C 36.259 76.500,36.161 76.800,36.103 77.167 C 36.044 77.533,35.922 77.833,35.831 77.833 C 35.741 77.833,35.667 78.021,35.667 78.250 C 35.667 78.479,35.601 78.667,35.521 78.667 C 35.441 78.667,35.328 78.967,35.269 79.333 C 35.211 79.700,35.098 80.000,35.019 80.000 C 34.940 80.000,34.828 80.300,34.769 80.667 C 34.711 81.033,34.589 81.333,34.498 81.333 C 34.407 81.333,34.333 81.521,34.333 81.750 C 34.333 81.979,34.259 82.167,34.169 82.167 C 34.078 82.167,33.956 82.467,33.897 82.833 C 33.839 83.200,33.741 83.500,33.680 83.500 C 33.619 83.500,33.429 83.912,33.257 84.417 C 33.086 84.921,32.893 85.333,32.828 85.333 C 32.763 85.333,32.661 85.633,32.603 86.000 C 32.544 86.367,32.422 86.667,32.331 86.667 C 32.241 86.667,32.167 86.854,32.167 87.083 C 32.167 87.313,32.101 87.500,32.021 87.500 C 31.941 87.500,31.828 87.800,31.769 88.167 C 31.711 88.533,31.598 88.833,31.519 88.833 C 31.440 88.833,31.328 89.133,31.269 89.500 C 31.211 89.867,31.089 90.167,30.998 90.167 C 30.907 90.167,30.833 90.354,30.833 90.583 C 30.833 90.813,30.758 91.000,30.667 91.000 C 30.575 91.000,30.500 91.188,30.500 91.417 L 30.500 91.833 39.345 91.833 C 49.124 91.833,48.597 91.894,48.782 90.752 C 48.834 90.430,48.941 90.167,49.020 90.167 C 49.098 90.167,49.211 89.867,49.269 89.500 C 49.328 89.133,49.441 88.833,49.521 88.833 C 49.601 88.833,49.667 88.721,49.667 88.583 C 49.667 88.446,49.732 88.333,49.812 88.333 C 49.892 88.333,50.005 88.033,50.064 87.667 C 50.123 87.300,50.235 87.000,50.314 87.000 C 50.393 87.000,50.505 86.700,50.564 86.333 C 50.623 85.967,50.745 85.667,50.835 85.667 C 50.926 85.667,51.000 85.479,51.000 85.250 C 51.000 85.021,51.067 84.833,51.149 84.833 C 51.230 84.833,51.344 84.646,51.402 84.417 L 51.506 84.000 61.250 84.000 L 70.994 84.000 71.098 84.417 C 71.156 84.646,71.260 84.833,71.330 84.833 C 71.400 84.833,71.505 85.133,71.564 85.500 C 71.623 85.867,71.745 86.167,71.835 86.167 C 71.926 86.167,72.000 86.354,72.000 86.583 C 72.000 86.813,72.074 87.000,72.165 87.000 C 72.255 87.000,72.377 87.300,72.436 87.667 C 72.495 88.033,72.596 88.333,72.661 88.333 C 72.726 88.333,72.919 88.746,73.091 89.250 C 73.262 89.754,73.452 90.167,73.513 90.167 C 73.573 90.167,73.666 90.430,73.718 90.752 C 73.903 91.894,73.376 91.833,83.155 91.833 L 92.000 91.833 92.000 91.417 C 92.000 91.188,91.925 91.000,91.833 91.000 C 91.742 91.000,91.667 90.813,91.667 90.583 C 91.667 90.354,91.593 90.167,91.502 90.167 C 91.411 90.167,91.289 89.867,91.231 89.500 C 91.172 89.133,91.059 88.833,90.979 88.833 C 90.899 88.833,90.833 88.721,90.833 88.583 C 90.833 88.446,90.765 88.333,90.682 88.333 C 90.599 88.333,90.480 87.958,90.417 87.500 C 90.354 87.042,90.242 86.667,90.169 86.667 C 90.096 86.667,89.986 86.460,89.925 86.208 C 89.774 85.582,89.441 84.833,89.314 84.833 C 89.256 84.833,89.161 84.533,89.103 84.167 C 89.044 83.800,88.932 83.500,88.853 83.500 C 88.774 83.500,88.661 83.200,88.603 82.833 C 88.544 82.467,88.422 82.167,88.331 82.167 C 88.241 82.167,88.167 81.979,88.167 81.750 C 88.167 81.521,88.093 81.333,88.002 81.333 C 87.911 81.333,87.789 81.033,87.731 80.667 C 87.672 80.300,87.559 80.000,87.479 80.000 C 87.399 80.000,87.333 79.887,87.333 79.750 C 87.333 79.612,87.265 79.500,87.182 79.500 C 87.099 79.500,86.980 79.125,86.917 78.667 C 86.854 78.208,86.742 77.833,86.669 77.833 C 86.596 77.833,86.486 77.627,86.425 77.375 C 86.274 76.748,85.941 76.000,85.814 76.000 C 85.756 76.000,85.661 75.700,85.603 75.333 C 85.544 74.967,85.432 74.667,85.353 74.667 C 85.274 74.667,85.161 74.367,85.103 74.000 C 85.044 73.633,84.922 73.333,84.831 73.333 C 84.741 73.333,84.667 73.146,84.667 72.917 C 84.667 72.688,84.593 72.500,84.502 72.500 C 84.411 72.500,84.289 72.200,84.231 71.833 C 84.172 71.467,84.059 71.167,83.979 71.167 C 83.899 71.167,83.833 71.017,83.833 70.833 C 83.833 70.650,83.763 70.500,83.677 70.500 C 83.591 70.500,83.470 70.162,83.408 69.750 C 83.346 69.337,83.229 69.000,83.148 69.000 C 83.066 69.000,83.000 68.887,83.000 68.750 C 83.000 68.529,80.472 68.500,61.250 68.500 C 42.028 68.500,39.500 68.529,39.500 68.750 M97.500 80.167 L 97.500 91.833 120.167 91.833 L 142.833 91.833 142.833 84.000 L 142.833 76.167 128.417 76.167 L 114.000 76.167 114.000 72.333 L 114.000 68.500 105.750 68.500 L 97.500 68.500 97.500 80.167 M147.732 70.540 C 147.793 71.664,147.846 72.713,147.849 72.872 C 147.852 73.030,147.925 73.204,148.011 73.257 C 148.096 73.310,148.167 73.649,148.167 74.010 C 148.167 74.371,148.231 74.667,148.311 74.667 C 148.390 74.667,148.501 75.003,148.557 75.413 C 148.650 76.091,148.924 76.785,149.184 77.000 C 149.240 77.046,149.337 77.365,149.400 77.708 C 149.463 78.052,149.587 78.333,149.674 78.333 C 149.762 78.333,149.833 78.416,149.833 78.516 C 149.833 78.740,150.356 79.884,150.511 80.000 C 150.572 80.046,150.674 80.252,150.739 80.458 C 150.803 80.665,150.926 80.833,151.011 80.833 C 151.097 80.833,151.167 80.946,151.167 81.083 C 151.167 81.221,151.237 81.333,151.322 81.333 C 151.408 81.333,151.527 81.491,151.589 81.683 C 151.650 81.876,151.823 82.171,151.975 82.339 C 152.126 82.508,152.400 82.846,152.583 83.091 C 152.767 83.335,153.134 83.734,153.400 83.976 C 153.666 84.218,153.966 84.515,154.067 84.635 C 154.167 84.756,154.468 85.056,154.735 85.302 C 155.002 85.548,155.408 85.956,155.638 86.208 C 155.867 86.460,156.128 86.667,156.217 86.667 C 156.306 86.667,156.552 86.854,156.765 87.083 C 156.977 87.313,157.259 87.500,157.391 87.500 C 157.523 87.500,157.674 87.612,157.727 87.750 C 157.780 87.888,157.938 88.000,158.078 88.000 C 158.218 88.000,158.333 88.068,158.333 88.150 C 158.333 88.233,158.671 88.439,159.083 88.608 C 159.495 88.778,159.832 88.967,159.833 89.028 C 159.833 89.090,160.058 89.190,160.333 89.250 C 160.608 89.310,160.834 89.410,160.835 89.472 C 160.836 89.600,161.646 89.999,161.908 90.001 C 162.005 90.002,162.308 90.120,162.583 90.263 C 162.858 90.407,163.440 90.567,163.875 90.619 C 164.310 90.671,164.667 90.778,164.667 90.857 C 164.667 90.935,164.885 91.000,165.153 91.000 C 165.420 91.000,165.664 91.074,165.694 91.163 C 165.725 91.253,166.519 91.377,167.458 91.438 C 168.398 91.500,169.167 91.614,169.167 91.692 C 169.167 91.770,170.142 91.833,171.333 91.833 C 172.525 91.833,173.500 91.770,173.500 91.692 C 173.500 91.614,174.303 91.502,175.284 91.442 C 176.265 91.381,177.142 91.258,177.234 91.166 C 177.325 91.075,177.610 91.000,177.867 91.000 C 178.123 91.000,178.333 90.932,178.333 90.849 C 178.333 90.766,178.708 90.646,179.167 90.583 C 179.625 90.520,180.000 90.410,180.000 90.339 C 180.000 90.268,180.300 90.161,180.667 90.103 C 181.033 90.044,181.333 89.922,181.333 89.831 C 181.333 89.741,181.446 89.667,181.583 89.667 C 181.721 89.667,181.833 89.601,181.833 89.521 C 181.833 89.441,182.133 89.328,182.500 89.269 C 182.867 89.211,183.167 89.090,183.167 89.001 C 183.167 88.912,183.354 88.793,183.583 88.735 C 183.813 88.678,184.000 88.564,184.000 88.482 C 184.000 88.400,184.112 88.333,184.250 88.333 C 184.387 88.333,184.500 88.263,184.500 88.178 C 184.500 88.092,184.669 87.969,184.875 87.904 C 185.081 87.839,185.371 87.646,185.520 87.476 C 185.668 87.306,185.876 87.167,185.983 87.167 C 186.090 87.167,186.219 87.057,186.271 86.923 C 186.322 86.789,186.523 86.629,186.717 86.567 C 187.044 86.463,190.167 83.450,190.167 83.238 C 190.167 83.186,190.260 83.038,190.375 82.911 C 190.862 82.368,191.000 82.172,191.000 82.025 C 191.000 81.939,191.112 81.826,191.250 81.773 C 191.387 81.720,191.500 81.533,191.500 81.356 C 191.500 81.180,191.612 80.992,191.750 80.940 C 191.887 80.887,192.000 80.729,192.000 80.589 C 192.000 80.448,192.075 80.333,192.167 80.333 C 192.258 80.333,192.333 80.183,192.333 80.000 C 192.333 79.817,192.402 79.667,192.487 79.667 C 192.571 79.667,192.690 79.442,192.750 79.167 C 192.810 78.892,192.925 78.667,193.006 78.667 C 193.086 78.667,193.201 78.404,193.261 78.083 C 193.321 77.762,193.437 77.500,193.519 77.500 C 193.600 77.500,193.667 77.354,193.667 77.177 C 193.667 76.999,193.737 76.809,193.824 76.756 C 193.910 76.703,194.031 76.323,194.093 75.913 C 194.154 75.502,194.271 75.167,194.352 75.167 C 194.434 75.167,194.500 74.910,194.500 74.597 C 194.500 74.284,194.577 74.002,194.671 73.971 C 194.766 73.939,194.888 73.048,194.946 71.957 C 195.004 70.881,195.115 70.000,195.192 70.000 C 195.270 70.000,195.333 69.662,195.333 69.250 L 195.333 68.500 187.100 68.500 L 178.866 68.500 178.750 69.500 C 178.686 70.050,178.566 70.542,178.484 70.593 C 178.401 70.645,178.333 70.832,178.333 71.010 C 178.333 71.188,178.258 71.333,178.167 71.333 C 178.075 71.333,178.000 71.486,178.000 71.672 C 178.000 71.858,177.890 72.053,177.756 72.104 C 177.622 72.155,177.462 72.359,177.399 72.557 C 177.280 72.935,176.721 73.500,176.467 73.500 C 176.385 73.500,176.144 73.688,175.931 73.917 C 175.719 74.146,175.460 74.333,175.356 74.333 C 175.252 74.333,175.167 74.402,175.167 74.485 C 175.167 74.569,174.867 74.688,174.500 74.750 C 174.133 74.812,173.833 74.931,173.833 75.015 C 173.833 75.098,173.571 75.167,173.250 75.167 C 172.929 75.167,172.667 75.242,172.667 75.333 C 172.667 75.428,172.170 75.500,171.510 75.500 C 170.874 75.500,170.307 75.425,170.250 75.333 C 170.193 75.242,169.851 75.167,169.490 75.167 C 169.129 75.167,168.833 75.098,168.833 75.013 C 168.833 74.929,168.608 74.810,168.333 74.750 C 168.058 74.690,167.833 74.579,167.833 74.505 C 167.833 74.430,167.658 74.325,167.443 74.271 C 167.059 74.175,165.167 72.508,165.167 72.267 C 165.167 72.199,165.054 72.030,164.917 71.893 C 164.779 71.755,164.667 71.503,164.667 71.331 C 164.667 71.160,164.592 70.973,164.500 70.917 C 164.408 70.860,164.333 70.631,164.333 70.407 C 164.333 70.183,164.263 70.000,164.176 70.000 C 164.090 70.000,163.996 69.681,163.968 69.292 L 163.917 68.583 155.769 68.540 L 147.621 68.497 147.732 70.540 M316.125 76.110 C 315.873 76.153,315.667 76.259,315.667 76.344 C 315.667 76.430,315.479 76.500,315.250 76.500 C 315.021 76.500,314.833 76.575,314.833 76.667 C 314.833 76.758,314.721 76.833,314.583 76.833 C 314.446 76.833,314.033 77.133,313.667 77.500 C 313.300 77.867,313.000 78.279,313.000 78.417 C 313.000 78.554,312.925 78.667,312.833 78.667 C 312.742 78.667,312.667 78.779,312.667 78.917 C 312.667 79.054,312.592 79.167,312.500 79.167 C 312.399 79.167,312.333 79.861,312.333 80.917 C 312.333 81.972,312.399 82.667,312.500 82.667 C 312.592 82.667,312.667 82.745,312.667 82.840 C 312.667 83.178,313.938 84.500,314.263 84.500 C 314.393 84.500,314.500 84.575,314.500 84.667 C 314.500 84.758,314.604 84.833,314.731 84.833 C 314.858 84.833,315.177 84.945,315.439 85.082 C 315.702 85.219,316.160 85.332,316.458 85.332 C 316.756 85.333,317.000 85.402,317.000 85.487 C 317.000 85.571,317.487 85.692,318.083 85.756 C 318.679 85.820,319.167 85.938,319.167 86.019 C 319.167 86.100,319.354 86.167,319.583 86.167 C 319.813 86.167,320.000 86.242,320.000 86.333 C 320.000 86.425,320.096 86.500,320.213 86.500 C 320.488 86.500,321.000 87.098,321.000 87.419 C 321.000 87.698,320.421 88.333,320.167 88.333 C 320.075 88.333,320.000 88.408,320.000 88.500 C 320.000 88.600,319.333 88.667,318.333 88.667 C 317.333 88.667,316.667 88.600,316.667 88.500 C 316.667 88.408,316.442 88.333,316.167 88.333 C 315.892 88.333,315.667 88.267,315.667 88.185 C 315.667 88.104,315.404 87.988,315.083 87.928 C 314.762 87.867,314.500 87.765,314.500 87.700 C 314.500 87.501,313.507 87.128,313.245 87.229 C 313.110 87.281,313.000 87.475,313.000 87.661 C 313.000 87.848,312.925 88.000,312.833 88.000 C 312.742 88.000,312.667 88.150,312.667 88.333 C 312.667 88.517,312.598 88.667,312.513 88.667 C 312.429 88.667,312.310 88.892,312.250 89.167 C 312.190 89.442,312.071 89.667,311.987 89.667 C 311.746 89.667,311.806 89.965,312.120 90.331 C 312.278 90.516,312.541 90.667,312.704 90.667 C 312.867 90.667,313.000 90.742,313.000 90.833 C 313.000 90.925,313.106 91.000,313.236 91.000 C 313.366 91.000,313.500 91.082,313.533 91.183 C 313.567 91.284,313.948 91.406,314.380 91.455 C 314.813 91.503,315.167 91.609,315.167 91.688 C 315.167 91.768,315.467 91.833,315.833 91.833 C 316.200 91.833,316.500 91.908,316.500 92.000 C 316.500 92.101,317.222 92.167,318.333 92.167 C 319.444 92.167,320.167 92.101,320.167 92.000 C 320.167 91.908,320.467 91.833,320.833 91.833 C 321.200 91.833,321.500 91.768,321.500 91.688 C 321.500 91.609,321.761 91.501,322.080 91.450 C 322.399 91.398,322.852 91.163,323.087 90.928 C 323.323 90.692,323.623 90.500,323.754 90.500 C 323.886 90.500,324.041 90.313,324.098 90.083 C 324.156 89.854,324.270 89.667,324.351 89.667 C 324.433 89.667,324.500 89.560,324.500 89.431 C 324.500 89.301,324.585 89.166,324.690 89.131 C 324.923 89.053,325.085 86.811,324.930 85.782 C 324.808 84.969,323.570 83.500,323.007 83.500 C 322.911 83.500,322.833 83.434,322.833 83.352 C 322.833 83.271,322.496 83.154,322.083 83.092 C 321.671 83.030,321.333 82.909,321.333 82.823 C 321.333 82.737,321.150 82.667,320.927 82.667 C 320.703 82.667,320.476 82.596,320.423 82.511 C 320.370 82.425,320.197 82.355,320.038 82.355 C 319.465 82.356,318.333 82.120,318.333 81.999 C 318.333 81.931,318.033 81.828,317.667 81.769 C 317.300 81.711,317.000 81.589,317.000 81.498 C 317.000 81.407,316.887 81.333,316.750 81.333 C 316.577 81.333,316.500 81.159,316.500 80.764 C 316.500 79.882,316.648 79.674,317.352 79.561 C 317.708 79.504,318.000 79.392,318.000 79.312 C 318.000 79.232,318.375 79.167,318.833 79.167 C 319.292 79.167,319.667 79.233,319.667 79.314 C 319.667 79.395,320.079 79.513,320.583 79.576 C 321.087 79.639,321.500 79.760,321.500 79.845 C 321.500 79.930,321.655 80.000,321.845 80.000 C 322.035 80.000,322.303 80.112,322.440 80.250 C 322.979 80.789,323.667 80.374,323.667 79.511 C 323.667 79.322,323.741 79.167,323.831 79.167 C 323.922 79.167,324.044 78.867,324.103 78.500 C 324.161 78.133,324.275 77.833,324.355 77.833 C 324.866 77.833,324.246 77.068,323.603 76.907 C 323.363 76.847,323.167 76.730,323.167 76.649 C 323.167 76.567,322.985 76.500,322.764 76.500 C 322.542 76.500,322.331 76.408,322.293 76.296 C 322.224 76.090,317.141 75.936,316.125 76.110 M209.611 76.278 C 209.425 76.464,209.479 86.167,209.667 86.167 C 209.758 86.167,209.833 86.467,209.833 86.833 C 209.833 87.200,209.899 87.500,209.979 87.500 C 210.059 87.500,210.172 87.800,210.231 88.167 C 210.289 88.533,210.405 88.833,210.489 88.833 C 210.572 88.833,210.686 89.042,210.742 89.297 C 210.836 89.723,211.647 90.667,211.919 90.667 C 211.983 90.667,212.258 90.854,212.530 91.083 C 212.803 91.313,213.207 91.500,213.429 91.500 C 213.652 91.500,213.833 91.575,213.833 91.667 C 213.833 91.758,214.096 91.833,214.417 91.833 C 214.737 91.833,215.000 91.908,215.000 92.000 C 215.000 92.100,215.663 92.167,216.657 92.167 C 217.582 92.167,218.359 92.093,218.417 92.000 C 218.473 91.908,218.815 91.833,219.177 91.833 C 219.538 91.833,219.833 91.764,219.833 91.680 C 219.833 91.596,220.058 91.477,220.333 91.417 C 220.608 91.356,220.833 91.238,220.833 91.153 C 220.833 91.069,220.911 91.000,221.007 91.000 C 221.372 91.000,223.000 89.372,223.000 89.007 C 223.000 88.911,223.068 88.833,223.151 88.833 C 223.234 88.833,223.354 88.458,223.417 88.000 C 223.480 87.542,223.599 87.167,223.682 87.167 C 223.770 87.167,223.833 84.843,223.833 81.667 L 223.833 76.167 221.833 76.167 L 219.833 76.167 219.833 81.319 C 219.833 84.153,219.777 86.497,219.708 86.528 C 219.640 86.558,219.450 86.846,219.287 87.167 C 218.978 87.777,218.199 88.333,217.653 88.333 C 217.477 88.333,217.333 88.408,217.333 88.500 C 217.333 88.592,217.033 88.667,216.667 88.667 C 216.300 88.667,216.000 88.610,216.000 88.541 C 216.000 88.471,215.770 88.313,215.489 88.188 C 214.814 87.890,214.167 87.229,214.167 86.840 C 214.167 86.668,214.073 86.497,213.958 86.458 C 213.799 86.406,213.737 85.178,213.694 81.278 L 213.637 76.167 211.680 76.167 C 210.603 76.167,209.672 76.217,209.611 76.278 M229.167 84.000 L 229.167 91.833 231.167 91.833 L 233.167 91.833 233.167 87.487 L 233.167 83.141 233.625 83.696 C 233.877 84.000,234.140 84.275,234.208 84.306 C 234.277 84.336,234.333 84.439,234.333 84.533 C 234.333 84.628,234.624 84.988,234.979 85.333 C 235.335 85.677,235.653 86.038,235.688 86.134 C 235.770 86.365,236.582 87.350,237.458 88.283 C 237.848 88.698,238.167 89.104,238.167 89.185 C 238.167 89.267,238.467 89.633,238.833 90.000 C 239.200 90.367,239.500 90.731,239.500 90.809 C 239.500 91.497,240.319 91.833,241.992 91.833 L 243.667 91.833 243.667 84.000 L 243.667 76.167 241.667 76.167 L 239.667 76.167 239.667 80.328 C 239.667 83.959,239.635 84.477,239.417 84.394 C 239.279 84.341,239.167 84.225,239.167 84.137 C 239.167 84.049,239.073 83.877,238.958 83.756 C 238.844 83.634,238.563 83.291,238.333 82.993 C 238.104 82.696,237.635 82.163,237.292 81.809 C 236.948 81.456,236.667 81.097,236.667 81.013 C 236.667 80.928,236.442 80.634,236.167 80.359 C 235.892 80.084,235.667 79.815,235.667 79.761 C 235.667 79.672,235.054 78.933,234.542 78.405 C 234.427 78.287,234.333 78.146,234.333 78.092 C 234.333 78.038,234.071 77.739,233.750 77.428 C 233.429 77.116,233.167 76.783,233.167 76.686 C 233.167 76.323,232.468 76.167,230.844 76.167 L 229.167 76.167 229.167 84.000 M249.167 84.000 L 249.167 91.833 251.167 91.833 L 253.167 91.833 253.167 84.000 L 253.167 76.167 251.167 76.167 L 249.167 76.167 249.167 84.000 M257.081 76.958 C 257.146 77.394,257.261 77.788,257.336 77.835 C 257.412 77.882,257.525 78.126,257.588 78.377 C 257.651 78.628,257.770 78.833,257.851 78.833 C 257.933 78.833,258.000 79.021,258.000 79.250 C 258.000 79.479,258.067 79.667,258.148 79.667 C 258.230 79.667,258.345 79.929,258.406 80.250 C 258.466 80.571,258.587 80.833,258.674 80.833 C 258.762 80.833,258.833 80.979,258.833 81.157 C 258.833 81.335,258.903 81.523,258.987 81.575 C 259.072 81.628,259.190 81.895,259.250 82.169 C 259.311 82.443,259.429 82.667,259.513 82.667 C 259.598 82.667,259.667 82.824,259.667 83.016 C 259.667 83.345,260.121 84.318,260.360 84.500 C 260.420 84.546,260.522 84.865,260.587 85.209 C 260.651 85.552,260.770 85.833,260.852 85.833 C 260.933 85.833,261.000 85.979,261.000 86.157 C 261.000 86.335,261.076 86.527,261.169 86.585 C 261.263 86.643,261.296 86.760,261.243 86.845 C 261.190 86.930,261.226 87.000,261.323 87.000 C 261.421 87.000,261.500 87.188,261.500 87.417 C 261.500 87.646,261.569 87.833,261.653 87.833 C 261.738 87.833,261.856 88.058,261.917 88.333 C 261.977 88.608,262.096 88.833,262.180 88.833 C 262.264 88.833,262.333 89.021,262.333 89.250 C 262.333 89.479,262.402 89.667,262.487 89.667 C 262.571 89.667,262.690 89.892,262.750 90.167 C 262.810 90.442,262.929 90.667,263.013 90.667 C 263.098 90.667,263.167 90.811,263.167 90.986 C 263.167 91.803,263.246 91.833,265.417 91.833 C 267.587 91.833,267.667 91.803,267.667 90.986 C 267.667 90.811,267.736 90.667,267.820 90.667 C 267.904 90.667,268.023 90.442,268.083 90.167 C 268.144 89.892,268.262 89.667,268.347 89.667 C 268.431 89.667,268.500 89.479,268.500 89.250 C 268.500 89.021,268.575 88.833,268.667 88.833 C 268.758 88.833,268.834 88.740,268.834 88.625 C 268.835 88.510,268.940 88.215,269.069 87.970 C 269.197 87.724,269.352 87.292,269.414 87.011 C 269.476 86.730,269.596 86.500,269.680 86.500 C 269.764 86.500,269.833 86.350,269.833 86.167 C 269.833 85.983,269.902 85.833,269.985 85.833 C 270.069 85.833,270.188 85.533,270.250 85.167 C 270.312 84.800,270.431 84.500,270.515 84.500 C 270.598 84.500,270.667 84.387,270.667 84.250 C 270.667 84.112,270.741 84.000,270.831 84.000 C 270.922 84.000,271.044 83.700,271.103 83.333 C 271.161 82.967,271.269 82.667,271.341 82.667 C 271.414 82.667,271.523 82.443,271.583 82.169 C 271.643 81.895,271.762 81.628,271.846 81.575 C 271.931 81.523,272.000 81.335,272.000 81.157 C 272.000 80.979,272.072 80.833,272.159 80.833 C 272.247 80.833,272.367 80.571,272.428 80.250 C 272.488 79.929,272.594 79.667,272.664 79.667 C 272.734 79.667,272.839 79.367,272.897 79.000 C 272.956 78.633,273.078 78.333,273.169 78.333 C 273.259 78.333,273.333 78.227,273.333 78.097 C 273.333 77.967,273.402 77.836,273.485 77.806 C 273.569 77.775,273.690 77.394,273.754 76.958 L 273.871 76.167 271.852 76.167 C 270.115 76.167,269.833 76.204,269.833 76.433 C 269.833 76.688,269.358 77.661,269.149 77.833 C 269.094 77.879,268.996 78.198,268.933 78.542 C 268.870 78.885,268.759 79.167,268.686 79.167 C 268.614 79.167,268.414 79.579,268.243 80.083 C 268.071 80.587,267.880 81.000,267.817 81.000 C 267.755 81.000,267.655 81.262,267.594 81.583 C 267.534 81.904,267.413 82.167,267.326 82.167 C 267.238 82.167,267.167 82.354,267.167 82.583 C 267.167 82.813,267.098 83.000,267.013 83.000 C 266.929 83.000,266.810 83.225,266.750 83.500 C 266.690 83.775,266.581 84.000,266.508 84.000 C 266.435 84.000,266.328 84.300,266.269 84.667 C 266.211 85.033,266.097 85.333,266.017 85.333 C 265.938 85.333,265.833 85.483,265.785 85.667 C 265.737 85.850,265.616 86.000,265.516 86.000 C 265.415 86.000,265.333 85.850,265.333 85.667 C 265.333 85.483,265.258 85.333,265.167 85.333 C 265.075 85.333,265.000 85.221,265.000 85.083 C 265.000 84.946,264.935 84.833,264.855 84.833 C 264.775 84.833,264.661 84.533,264.603 84.167 C 264.544 83.800,264.430 83.500,264.349 83.500 C 264.269 83.500,264.153 83.294,264.092 83.042 C 263.938 82.402,263.607 81.667,263.474 81.667 C 263.413 81.667,263.312 81.367,263.250 81.000 C 263.188 80.633,263.077 80.333,263.004 80.333 C 262.930 80.333,262.821 80.071,262.761 79.750 C 262.701 79.429,262.580 79.167,262.492 79.167 C 262.405 79.167,262.333 78.979,262.333 78.750 C 262.333 78.521,262.264 78.333,262.180 78.333 C 262.096 78.333,261.977 78.108,261.917 77.833 C 261.856 77.558,261.738 77.333,261.653 77.333 C 261.569 77.333,261.500 77.178,261.500 76.988 C 261.500 76.281,261.152 76.167,258.993 76.167 L 256.962 76.167 257.081 76.958 M277.667 84.000 L 277.667 91.833 283.750 91.833 L 289.833 91.833 289.833 90.250 L 289.833 88.667 285.750 88.667 L 281.667 88.667 281.667 87.167 L 281.667 85.667 285.167 85.667 L 288.667 85.667 288.667 83.917 L 288.667 82.167 285.167 82.167 L 281.667 82.167 281.667 80.833 L 281.667 79.500 285.583 79.500 L 289.500 79.500 289.500 77.833 L 289.500 76.167 283.583 76.167 L 277.667 76.167 277.667 84.000 M294.667 84.000 L 294.667 91.833 296.667 91.833 L 298.667 91.833 298.667 89.667 L 298.667 87.500 299.960 87.500 C 301.207 87.500,301.269 87.519,301.668 88.017 C 301.897 88.302,302.177 88.634,302.292 88.756 C 302.406 88.877,302.500 89.045,302.500 89.129 C 302.500 89.213,302.650 89.455,302.833 89.667 C 303.017 89.878,303.167 90.147,303.167 90.264 C 303.167 90.382,303.317 90.525,303.500 90.583 C 303.683 90.642,303.833 90.817,303.833 90.974 C 303.833 91.660,304.389 91.833,306.585 91.833 C 308.842 91.833,309.102 91.698,308.367 90.906 C 308.202 90.729,308.016 90.452,307.955 90.292 C 307.894 90.131,307.771 90.000,307.683 90.000 C 307.595 90.000,307.469 89.831,307.404 89.625 C 307.339 89.419,307.165 89.136,307.018 88.998 C 306.719 88.716,306.409 88.252,306.183 87.750 C 306.100 87.567,305.875 87.306,305.683 87.172 C 305.242 86.862,305.236 86.667,305.668 86.667 C 305.852 86.667,306.238 86.442,306.526 86.167 C 306.814 85.892,307.112 85.667,307.188 85.667 C 307.265 85.667,307.374 85.479,307.432 85.250 C 307.489 85.021,307.602 84.833,307.683 84.833 C 307.763 84.833,307.877 84.533,307.936 84.167 C 307.995 83.800,308.108 83.500,308.188 83.500 C 308.268 83.500,308.333 82.825,308.333 82.000 C 308.333 81.111,308.265 80.500,308.167 80.500 C 308.075 80.500,307.999 80.294,307.998 80.042 C 307.996 79.790,307.887 79.396,307.754 79.167 C 307.622 78.938,307.457 78.638,307.390 78.500 C 307.217 78.152,306.547 77.500,306.361 77.500 C 306.277 77.500,306.118 77.392,306.009 77.261 C 305.900 77.129,305.590 76.973,305.322 76.914 C 305.053 76.855,304.833 76.738,304.833 76.653 C 304.833 76.569,304.613 76.500,304.343 76.500 C 304.074 76.500,303.807 76.425,303.750 76.333 C 303.685 76.229,301.970 76.167,299.157 76.167 L 294.667 76.167 294.667 84.000 M329.667 84.000 L 329.667 91.833 331.667 91.833 L 333.667 91.833 333.667 84.000 L 333.667 76.167 331.667 76.167 L 329.667 76.167 329.667 84.000 M337.412 76.542 C 337.360 76.750,337.340 77.482,337.367 78.169 L 337.417 79.417 339.875 79.463 L 342.333 79.509 342.333 85.671 L 342.333 91.833 344.333 91.833 L 346.333 91.833 346.333 85.667 L 346.333 79.500 348.756 79.500 L 351.179 79.500 351.131 77.875 L 351.083 76.250 344.295 76.206 L 337.507 76.163 337.412 76.542 M353.833 76.583 C 353.833 76.813,353.907 77.000,353.997 77.000 C 354.087 77.000,354.207 77.188,354.265 77.417 C 354.322 77.646,354.436 77.833,354.518 77.833 C 354.600 77.833,354.667 77.946,354.667 78.083 C 354.667 78.221,354.740 78.333,354.830 78.333 C 354.920 78.333,355.041 78.521,355.098 78.750 C 355.156 78.979,355.262 79.167,355.333 79.167 C 355.405 79.167,355.511 79.354,355.568 79.583 C 355.626 79.813,355.747 80.000,355.837 80.000 C 355.926 80.000,356.000 80.112,356.000 80.250 C 356.000 80.387,356.075 80.500,356.167 80.500 C 356.258 80.500,356.333 80.607,356.333 80.738 C 356.333 80.869,356.436 81.079,356.561 81.204 C 356.687 81.330,356.847 81.616,356.919 81.841 C 356.990 82.066,357.176 82.362,357.333 82.500 C 357.490 82.637,357.678 82.938,357.750 83.167 C 357.822 83.396,358.009 83.696,358.164 83.833 C 358.320 83.971,358.416 84.177,358.377 84.292 C 358.338 84.406,358.378 84.500,358.467 84.500 C 358.555 84.500,358.672 84.631,358.726 84.792 C 358.821 85.075,359.165 85.665,359.333 85.833 C 359.744 86.244,359.833 86.856,359.833 89.248 L 359.833 91.833 361.823 91.833 L 363.812 91.833 363.864 88.827 C 363.895 87.076,363.986 85.771,364.083 85.702 C 364.296 85.551,364.648 85.002,364.774 84.625 C 364.828 84.465,364.930 84.333,365.001 84.333 C 365.072 84.333,365.178 84.146,365.235 83.917 C 365.293 83.688,365.413 83.500,365.503 83.500 C 365.593 83.500,365.667 83.387,365.667 83.250 C 365.667 83.112,365.742 83.000,365.833 83.000 C 365.925 83.000,366.000 82.854,366.000 82.675 C 366.000 82.496,366.094 82.290,366.209 82.217 C 366.323 82.143,366.528 81.858,366.663 81.583 C 366.797 81.308,367.041 80.904,367.204 80.686 C 367.367 80.467,367.500 80.167,367.500 80.018 C 367.500 79.869,367.643 79.657,367.818 79.548 C 367.993 79.439,368.186 79.127,368.245 78.855 C 368.305 78.583,368.462 78.320,368.594 78.269 C 368.725 78.219,368.833 78.025,368.833 77.839 C 368.833 77.652,368.908 77.500,369.000 77.500 C 369.092 77.500,369.167 77.387,369.167 77.250 C 369.167 77.112,369.242 77.000,369.333 77.000 C 369.425 77.000,369.500 76.813,369.500 76.583 L 369.500 76.167 367.496 76.167 C 365.511 76.167,365.490 76.171,365.333 76.583 C 365.246 76.813,365.104 77.000,365.017 77.000 C 364.931 77.000,364.806 77.244,364.741 77.542 C 364.675 77.840,364.488 78.177,364.324 78.292 C 364.160 78.407,363.978 78.719,363.920 78.986 C 363.861 79.254,363.705 79.514,363.573 79.564 C 363.441 79.615,363.333 79.809,363.333 79.995 C 363.333 80.181,363.258 80.333,363.167 80.333 C 363.075 80.333,363.000 80.438,363.000 80.566 C 363.000 80.693,362.887 80.841,362.750 80.894 C 362.613 80.946,362.500 81.142,362.500 81.328 C 362.500 81.514,362.425 81.667,362.333 81.667 C 362.242 81.667,362.167 81.771,362.167 81.899 C 362.167 82.027,362.054 82.174,361.917 82.227 C 361.764 82.285,361.667 82.227,361.667 82.078 C 361.667 81.943,361.600 81.833,361.518 81.833 C 361.436 81.833,361.322 81.646,361.265 81.417 C 361.207 81.188,361.087 81.000,360.997 81.000 C 360.907 81.000,360.833 80.887,360.833 80.750 C 360.833 80.612,360.758 80.500,360.667 80.500 C 360.575 80.500,360.500 80.393,360.500 80.262 C 360.500 80.131,360.406 79.924,360.292 79.801 C 360.177 79.678,359.940 79.298,359.765 78.956 C 359.591 78.613,359.392 78.333,359.325 78.333 C 359.258 78.333,359.152 78.132,359.090 77.885 C 359.028 77.638,358.843 77.319,358.679 77.177 C 358.515 77.034,358.328 76.748,358.263 76.542 C 358.148 76.178,358.078 76.167,355.989 76.167 L 353.833 76.167 353.833 76.583 M302.632 79.813 C 302.666 79.916,302.783 80.000,302.891 80.000 C 303.180 80.000,304.000 80.808,304.000 81.092 C 304.000 81.227,304.088 81.478,304.195 81.650 C 304.349 81.896,304.331 82.084,304.111 82.548 C 303.958 82.870,303.833 83.184,303.833 83.245 C 303.833 83.509,303.293 83.861,302.752 83.949 C 302.430 84.001,302.167 84.109,302.167 84.188 C 302.167 84.268,301.379 84.333,300.417 84.333 L 298.667 84.333 298.667 81.893 L 298.667 79.454 300.618 79.540 C 301.842 79.594,302.593 79.696,302.632 79.813 " stroke="none" fill="#748494" fill-rule="evenodd"></path><path id="path1" d="M278.417 30.324 C 278.233 30.408,277.765 30.482,277.375 30.488 C 276.985 30.495,276.667 30.575,276.667 30.667 C 276.667 30.758,276.517 30.833,276.334 30.833 C 275.924 30.833,274.667 31.365,274.667 31.539 C 274.667 31.609,274.560 31.667,274.429 31.667 C 274.223 31.667,273.977 31.881,273.050 32.870 C 272.939 32.987,272.752 33.173,272.633 33.284 C 272.246 33.642,272.000 33.982,272.000 34.160 C 272.000 34.255,271.933 34.333,271.851 34.333 C 271.770 34.333,271.651 34.539,271.588 34.790 C 271.525 35.041,271.386 35.301,271.278 35.367 C 270.991 35.545,271.004 41.362,271.292 41.458 C 271.406 41.497,271.500 41.604,271.500 41.697 C 271.500 42.477,273.873 45.211,274.738 45.429 C 274.974 45.488,275.167 45.603,275.167 45.685 C 275.167 45.766,275.310 45.833,275.486 45.833 C 275.662 45.833,275.831 45.909,275.862 46.002 C 275.893 46.095,276.424 46.219,277.042 46.277 C 277.661 46.334,278.167 46.446,278.167 46.524 C 278.167 46.603,278.729 46.667,279.417 46.667 C 280.104 46.667,280.667 46.602,280.667 46.523 C 280.667 46.444,281.098 46.337,281.625 46.286 C 282.573 46.193,283.496 45.867,283.499 45.625 C 283.499 45.556,283.652 45.500,283.839 45.500 C 284.025 45.500,284.220 45.387,284.273 45.250 C 284.326 45.112,284.467 45.000,284.587 45.000 C 284.798 45.000,286.000 43.934,286.000 43.746 C 286.000 42.941,283.224 40.989,282.883 41.555 C 282.810 41.676,282.506 41.918,282.208 42.091 C 281.910 42.264,281.667 42.457,281.667 42.520 C 281.667 42.584,281.273 42.689,280.792 42.755 C 280.310 42.820,279.865 42.955,279.803 43.054 C 279.721 43.183,279.578 43.180,279.303 43.045 C 279.090 42.941,278.560 42.809,278.125 42.751 C 277.690 42.693,277.333 42.576,277.333 42.490 C 277.333 42.404,277.255 42.333,277.158 42.333 C 276.899 42.333,275.945 41.324,275.663 40.750 C 275.528 40.475,275.342 40.196,275.250 40.131 C 274.996 39.950,275.034 36.794,275.292 36.708 C 275.406 36.670,275.500 36.533,275.500 36.403 C 275.500 36.273,275.575 36.167,275.667 36.167 C 275.758 36.167,275.833 36.065,275.833 35.941 C 275.833 35.680,276.576 34.833,276.805 34.833 C 276.890 34.833,277.053 34.721,277.167 34.583 C 277.281 34.446,277.552 34.333,277.770 34.333 C 277.988 34.333,278.167 34.258,278.167 34.167 C 278.167 34.070,278.719 34.000,279.490 34.000 C 280.218 34.000,280.860 34.075,280.917 34.167 C 280.973 34.258,281.160 34.333,281.331 34.333 C 281.503 34.333,281.755 34.446,281.893 34.583 C 282.030 34.721,282.196 34.833,282.261 34.833 C 282.325 34.833,282.552 35.021,282.765 35.250 C 282.977 35.479,283.274 35.667,283.424 35.667 C 283.671 35.667,286.000 33.461,286.000 33.227 C 286.000 33.054,284.763 31.897,284.458 31.785 C 284.298 31.726,284.167 31.600,284.167 31.505 C 284.167 31.411,284.023 31.333,283.847 31.333 C 283.672 31.333,283.501 31.253,283.469 31.156 C 283.436 31.058,283.092 30.936,282.705 30.884 C 282.317 30.832,282.000 30.732,282.000 30.662 C 282.000 30.414,278.865 30.119,278.417 30.324 M50.100 31.125 C 50.163 31.469,50.269 31.787,50.335 31.833 C 50.401 31.879,50.509 32.104,50.576 32.333 C 50.783 33.047,51.076 33.667,51.207 33.667 C 51.277 33.667,51.334 33.835,51.334 34.042 C 51.335 34.248,51.447 34.631,51.584 34.894 C 51.721 35.157,51.833 35.475,51.833 35.602 C 51.833 35.729,51.902 35.833,51.985 35.833 C 52.069 35.833,52.188 36.133,52.250 36.500 C 52.312 36.867,52.421 37.167,52.493 37.167 C 52.565 37.167,52.672 37.467,52.731 37.833 C 52.789 38.200,52.911 38.500,53.002 38.500 C 53.093 38.500,53.167 38.688,53.167 38.917 C 53.167 39.146,53.242 39.333,53.333 39.333 C 53.425 39.333,53.500 39.465,53.501 39.625 C 53.502 39.785,53.607 40.118,53.735 40.364 C 53.864 40.610,54.019 41.040,54.080 41.320 C 54.142 41.600,54.262 41.872,54.346 41.925 C 54.431 41.977,54.500 42.165,54.500 42.343 C 54.500 42.521,54.568 42.667,54.652 42.667 C 54.736 42.667,54.855 42.967,54.917 43.333 C 54.979 43.700,55.098 44.000,55.181 44.000 C 55.265 44.000,55.333 44.188,55.333 44.417 C 55.333 44.646,55.407 44.833,55.498 44.833 C 55.589 44.833,55.711 45.133,55.769 45.500 C 55.828 45.867,55.933 46.167,56.003 46.167 C 56.073 46.167,56.180 46.373,56.241 46.625 C 56.393 47.252,56.725 48.000,56.853 48.000 C 56.910 48.000,57.008 48.315,57.069 48.700 C 57.131 49.085,57.242 49.479,57.316 49.575 C 57.390 49.671,57.589 50.144,57.758 50.625 C 57.927 51.106,58.116 51.500,58.178 51.500 C 58.240 51.500,58.339 51.800,58.397 52.167 C 58.456 52.533,58.578 52.833,58.669 52.833 C 58.759 52.833,58.833 53.021,58.833 53.250 C 58.833 53.479,58.907 53.667,58.998 53.667 C 59.089 53.667,59.211 53.967,59.269 54.333 C 59.328 54.700,59.440 55.000,59.519 55.000 C 59.598 55.000,59.711 55.300,59.769 55.667 C 59.828 56.033,59.941 56.333,60.021 56.333 C 60.101 56.333,60.167 56.446,60.167 56.583 C 60.167 56.721,60.232 56.833,60.312 56.833 C 60.392 56.833,60.505 57.133,60.564 57.500 C 60.623 57.867,60.745 58.167,60.835 58.167 C 60.926 58.167,61.000 58.298,60.999 58.458 C 60.998 58.879,61.541 60.333,61.700 60.333 C 61.773 60.333,61.833 60.477,61.833 60.653 C 61.833 61.549,61.308 61.500,70.934 61.500 L 79.833 61.500 79.833 60.917 C 79.833 60.596,79.768 60.333,79.688 60.333 C 79.608 60.333,79.495 60.033,79.436 59.667 C 79.377 59.300,79.255 59.000,79.165 59.000 C 79.074 59.000,79.000 58.813,79.000 58.583 C 79.000 58.354,78.931 58.167,78.847 58.167 C 78.762 58.167,78.643 57.937,78.581 57.655 C 78.519 57.374,78.364 56.943,78.235 56.697 C 78.107 56.451,78.002 56.155,78.001 56.039 C 78.000 55.824,77.664 55.150,77.482 55.000 C 77.427 54.954,77.330 54.635,77.266 54.292 C 77.203 53.948,77.080 53.667,76.992 53.667 C 76.905 53.667,76.833 53.479,76.833 53.250 C 76.833 53.021,76.768 52.833,76.688 52.833 C 76.608 52.833,76.495 52.533,76.436 52.167 C 76.377 51.800,76.265 51.500,76.186 51.500 C 76.107 51.500,75.995 51.200,75.936 50.833 C 75.877 50.467,75.755 50.167,75.665 50.167 C 75.574 50.167,75.500 49.979,75.500 49.750 C 75.500 49.521,75.426 49.333,75.335 49.333 C 75.245 49.333,75.123 49.033,75.064 48.667 C 75.005 48.300,74.900 48.000,74.830 48.000 C 74.760 48.000,74.653 47.794,74.592 47.542 C 74.441 46.915,74.108 46.167,73.981 46.167 C 73.923 46.167,73.828 45.867,73.769 45.500 C 73.711 45.133,73.589 44.833,73.498 44.833 C 73.407 44.833,73.333 44.646,73.333 44.417 C 73.333 44.188,73.259 44.000,73.169 44.000 C 73.078 44.000,72.956 43.700,72.897 43.333 C 72.839 42.967,72.735 42.667,72.667 42.667 C 72.598 42.667,72.495 42.367,72.436 42.000 C 72.377 41.633,72.255 41.333,72.165 41.333 C 72.074 41.333,72.000 41.146,72.000 40.917 C 72.000 40.688,71.926 40.500,71.835 40.500 C 71.745 40.500,71.623 40.200,71.564 39.833 C 71.505 39.467,71.395 39.167,71.320 39.167 C 71.244 39.167,71.132 38.903,71.072 38.581 C 71.012 38.260,70.896 37.955,70.814 37.905 C 70.733 37.855,70.667 37.668,70.667 37.490 C 70.667 37.312,70.598 37.167,70.515 37.167 C 70.431 37.167,70.312 36.867,70.250 36.500 C 70.188 36.133,70.069 35.833,69.985 35.833 C 69.902 35.833,69.833 35.683,69.833 35.500 C 69.833 35.317,69.767 35.167,69.685 35.167 C 69.604 35.167,69.488 34.907,69.429 34.590 C 69.370 34.273,69.212 33.805,69.078 33.549 C 68.945 33.293,68.835 32.989,68.834 32.873 C 68.833 32.657,68.497 31.983,68.316 31.833 C 68.260 31.787,68.163 31.469,68.100 31.125 L 67.985 30.500 58.985 30.500 L 49.985 30.500 50.100 31.125 M97.541 45.958 L 97.583 61.417 105.792 61.460 L 114.000 61.503 114.000 46.002 L 114.000 30.500 105.749 30.500 L 97.498 30.500 97.541 45.958 M147.667 46.000 L 147.667 61.500 155.833 61.500 L 164.000 61.500 164.000 46.000 L 164.000 30.500 155.833 30.500 L 147.667 30.500 147.667 46.000 M178.833 46.000 L 178.833 61.500 186.917 61.500 L 195.000 61.500 195.000 46.000 L 195.000 30.500 186.917 30.500 L 178.833 30.500 178.833 46.000 M216.410 31.037 C 216.345 31.337,216.245 31.621,216.187 31.667 C 215.969 31.842,215.500 32.875,215.500 33.180 C 215.500 33.356,215.431 33.500,215.347 33.500 C 215.262 33.500,215.144 33.725,215.083 34.000 C 215.023 34.275,214.904 34.500,214.820 34.500 C 214.736 34.500,214.667 34.650,214.667 34.833 C 214.667 35.017,214.593 35.167,214.502 35.167 C 214.411 35.167,214.289 35.467,214.231 35.833 C 214.172 36.200,214.065 36.500,213.992 36.500 C 213.919 36.500,213.810 36.725,213.750 37.000 C 213.690 37.275,213.589 37.500,213.527 37.500 C 213.393 37.500,213.063 38.233,212.908 38.875 C 212.847 39.127,212.730 39.333,212.649 39.333 C 212.567 39.333,212.500 39.469,212.500 39.635 C 212.500 39.801,212.390 40.082,212.255 40.260 C 212.121 40.438,212.008 40.752,212.005 40.958 C 212.002 41.165,211.931 41.333,211.847 41.333 C 211.762 41.333,211.644 41.558,211.583 41.833 C 211.523 42.108,211.423 42.333,211.361 42.333 C 211.227 42.333,210.896 43.066,210.741 43.708 C 210.680 43.960,210.572 44.167,210.500 44.167 C 210.429 44.167,210.321 44.429,210.261 44.750 C 210.201 45.071,210.080 45.333,209.992 45.333 C 209.905 45.333,209.833 45.558,209.833 45.833 L 209.833 46.333 211.792 46.331 C 214.028 46.328,214.094 46.304,214.253 45.458 C 214.318 45.114,214.437 44.833,214.519 44.833 C 214.600 44.833,214.667 44.683,214.667 44.500 C 214.667 44.317,214.732 44.167,214.813 44.167 C 214.893 44.167,215.003 43.942,215.058 43.667 L 215.158 43.167 218.577 43.167 L 221.996 43.167 222.103 43.833 C 222.161 44.200,222.269 44.500,222.341 44.500 C 222.414 44.500,222.523 44.725,222.583 45.000 C 222.644 45.275,222.762 45.500,222.847 45.500 C 222.931 45.500,223.000 45.688,223.000 45.917 L 223.000 46.333 225.167 46.333 L 227.333 46.333 227.333 45.833 C 227.333 45.558,227.262 45.333,227.174 45.333 C 227.087 45.333,226.966 45.071,226.906 44.750 C 226.845 44.429,226.730 44.167,226.648 44.167 C 226.567 44.167,226.500 44.054,226.500 43.917 C 226.500 43.779,226.435 43.667,226.355 43.667 C 226.275 43.667,226.161 43.367,226.103 43.000 C 226.044 42.633,225.928 42.333,225.845 42.333 C 225.761 42.333,225.644 42.108,225.583 41.833 C 225.523 41.558,225.404 41.333,225.320 41.333 C 225.236 41.333,225.167 41.146,225.167 40.917 C 225.167 40.688,225.095 40.500,225.008 40.500 C 224.920 40.500,224.799 40.237,224.739 39.917 C 224.679 39.596,224.578 39.333,224.516 39.333 C 224.453 39.333,224.262 38.921,224.091 38.417 C 223.919 37.912,223.722 37.500,223.653 37.500 C 223.583 37.500,223.477 37.275,223.417 37.000 C 223.356 36.725,223.238 36.500,223.153 36.500 C 223.069 36.500,223.000 36.350,223.000 36.167 C 223.000 35.983,222.925 35.833,222.833 35.833 C 222.742 35.833,222.664 35.702,222.661 35.542 C 222.658 35.381,222.510 34.950,222.333 34.583 C 222.156 34.217,222.009 33.823,222.006 33.708 C 222.003 33.594,221.925 33.500,221.833 33.500 C 221.742 33.500,221.667 33.313,221.667 33.083 C 221.667 32.854,221.600 32.667,221.518 32.667 C 221.436 32.667,221.318 32.461,221.255 32.210 C 221.192 31.959,221.089 31.715,221.026 31.668 C 220.964 31.622,220.837 31.358,220.744 31.083 L 220.576 30.583 218.552 30.537 L 216.529 30.490 216.410 31.037 M230.111 30.611 C 230.050 30.672,230.000 34.235,230.000 38.528 L 230.000 46.333 232.000 46.333 L 234.000 46.333 234.000 43.500 L 234.000 40.667 237.500 40.667 L 241.000 40.667 241.000 39.083 L 241.000 37.500 237.500 37.500 L 234.000 37.500 234.000 35.750 L 234.000 34.000 238.083 34.000 L 242.167 34.000 242.167 32.250 L 242.167 30.500 236.194 30.500 C 232.910 30.500,230.172 30.550,230.111 30.611 M245.667 38.417 L 245.667 46.333 247.667 46.333 L 249.667 46.333 249.667 44.167 L 249.667 42.000 250.929 42.000 C 252.248 42.000,252.524 42.122,252.739 42.799 C 252.803 43.001,252.926 43.167,253.011 43.167 C 253.097 43.167,253.167 43.252,253.167 43.356 C 253.167 43.460,253.345 43.711,253.564 43.913 C 253.782 44.116,254.012 44.443,254.075 44.641 C 254.138 44.838,254.259 45.000,254.345 45.000 C 254.430 45.000,254.500 45.112,254.500 45.250 C 254.500 45.387,254.563 45.500,254.640 45.500 C 254.717 45.500,254.865 45.688,254.970 45.917 C 255.206 46.435,259.667 46.594,259.667 46.083 C 259.667 45.946,259.600 45.833,259.519 45.833 C 259.438 45.833,259.328 45.702,259.274 45.542 C 259.134 45.123,258.807 44.641,258.375 44.217 C 258.169 44.015,258.000 43.771,258.000 43.675 C 258.000 43.579,257.926 43.500,257.837 43.500 C 257.747 43.500,257.626 43.313,257.568 43.083 C 257.511 42.854,257.409 42.667,257.342 42.667 C 257.274 42.667,257.078 42.404,256.905 42.083 C 256.732 41.762,256.528 41.500,256.450 41.500 C 256.373 41.500,256.422 41.387,256.560 41.250 C 256.697 41.112,256.853 41.000,256.906 41.000 C 257.107 41.000,258.500 39.583,258.500 39.379 C 258.500 39.262,258.575 39.167,258.667 39.167 C 258.758 39.167,258.833 38.979,258.833 38.750 C 258.833 38.521,258.908 38.333,259.000 38.333 C 259.101 38.333,259.167 37.587,259.167 36.427 C 259.167 35.335,259.095 34.476,259.000 34.417 C 258.908 34.360,258.833 34.168,258.833 33.990 C 258.833 33.812,258.758 33.667,258.667 33.667 C 258.575 33.667,258.500 33.552,258.500 33.411 C 258.500 33.271,258.387 33.113,258.250 33.060 C 258.112 33.008,258.000 32.892,258.000 32.804 C 258.000 32.596,257.571 32.167,257.363 32.167 C 257.275 32.167,257.159 32.054,257.106 31.917 C 257.054 31.779,256.858 31.667,256.672 31.667 C 256.486 31.667,256.333 31.592,256.333 31.500 C 256.333 31.408,256.227 31.333,256.097 31.333 C 255.967 31.333,255.836 31.259,255.806 31.168 C 255.775 31.078,255.281 30.954,254.708 30.895 C 254.135 30.835,253.667 30.722,253.667 30.643 C 253.667 30.564,251.867 30.500,249.667 30.500 L 245.667 30.500 245.667 38.417 M263.167 38.417 L 263.167 46.333 265.167 46.333 L 267.167 46.333 267.167 38.417 L 267.167 30.500 265.167 30.500 L 263.167 30.500 263.167 38.417 M294.051 31.333 C 293.888 31.792,293.704 32.167,293.641 32.167 C 293.578 32.167,293.477 32.392,293.417 32.667 C 293.356 32.942,293.238 33.167,293.153 33.167 C 293.069 33.167,293.000 33.354,293.000 33.583 C 293.000 33.813,292.928 34.000,292.841 34.000 C 292.753 34.000,292.633 34.262,292.572 34.583 C 292.512 34.904,292.397 35.167,292.317 35.167 C 292.236 35.167,292.123 35.467,292.064 35.833 C 292.005 36.200,291.892 36.500,291.812 36.500 C 291.732 36.500,291.667 36.612,291.667 36.750 C 291.667 36.887,291.592 37.000,291.500 37.000 C 291.408 37.000,291.333 37.082,291.333 37.183 C 291.333 37.382,290.945 38.317,290.568 39.026 C 290.439 39.269,290.333 39.588,290.333 39.734 C 290.333 39.880,290.264 40.000,290.180 40.000 C 290.096 40.000,289.977 40.224,289.917 40.498 C 289.857 40.772,289.738 41.039,289.654 41.091 C 289.569 41.144,289.500 41.332,289.500 41.510 C 289.500 41.688,289.431 41.833,289.347 41.833 C 289.262 41.833,289.144 42.058,289.083 42.333 C 289.023 42.608,288.911 42.833,288.835 42.833 C 288.758 42.833,288.645 43.133,288.583 43.500 C 288.521 43.867,288.402 44.167,288.319 44.167 C 288.235 44.167,288.167 44.310,288.167 44.486 C 288.167 44.662,288.087 44.832,287.989 44.865 C 287.892 44.897,287.769 45.241,287.717 45.629 L 287.623 46.333 289.624 46.333 C 291.806 46.333,291.917 46.289,292.103 45.359 C 292.161 45.070,292.266 44.833,292.336 44.833 C 292.406 44.833,292.514 44.560,292.577 44.226 C 292.774 43.173,292.799 43.167,296.405 43.167 C 299.193 43.167,299.667 43.203,299.667 43.417 C 299.667 43.554,299.742 43.667,299.833 43.667 C 299.925 43.667,300.000 43.854,300.000 44.083 C 300.000 44.313,300.074 44.500,300.165 44.500 C 300.255 44.500,300.377 44.800,300.436 45.167 C 300.495 45.533,300.608 45.833,300.688 45.833 C 300.768 45.833,300.833 45.946,300.833 46.083 C 300.833 46.293,301.185 46.333,303.000 46.333 L 305.167 46.333 305.167 45.833 C 305.167 45.558,305.092 45.333,305.000 45.333 C 304.908 45.333,304.833 45.221,304.833 45.083 C 304.833 44.946,304.767 44.833,304.685 44.833 C 304.604 44.833,304.488 44.571,304.428 44.250 C 304.367 43.929,304.255 43.667,304.177 43.667 C 304.100 43.667,303.986 43.460,303.925 43.208 C 303.770 42.566,303.440 41.833,303.306 41.833 C 303.244 41.833,303.144 41.609,303.084 41.335 C 303.024 41.061,302.905 40.794,302.821 40.742 C 302.736 40.690,302.667 40.532,302.667 40.390 C 302.667 40.111,302.170 38.968,301.989 38.833 C 301.928 38.787,301.824 38.563,301.758 38.333 C 301.555 37.633,301.258 37.000,301.134 37.000 C 301.068 37.000,300.966 36.737,300.906 36.417 C 300.845 36.096,300.730 35.833,300.648 35.833 C 300.567 35.833,300.500 35.721,300.500 35.584 C 300.500 35.253,299.952 34.000,299.807 34.000 C 299.745 34.000,299.644 33.775,299.583 33.500 C 299.523 33.225,299.404 33.000,299.320 33.000 C 299.236 33.000,299.167 32.827,299.167 32.615 C 299.167 32.404,299.057 32.085,298.922 31.907 C 298.787 31.729,298.675 31.452,298.672 31.292 C 298.669 31.131,298.592 31.000,298.500 31.000 C 298.408 31.000,298.333 30.887,298.333 30.750 C 298.333 30.542,298.001 30.500,296.340 30.500 L 294.347 30.500 294.051 31.333 M307.833 38.417 L 307.833 46.333 309.833 46.333 L 311.833 46.333 311.833 42.083 C 311.833 39.361,311.893 37.833,312.000 37.833 C 312.092 37.833,312.167 37.919,312.167 38.024 C 312.167 38.128,312.392 38.429,312.667 38.692 C 312.942 38.955,313.167 39.247,313.167 39.341 C 313.167 39.436,313.467 39.799,313.833 40.148 C 314.200 40.496,314.500 40.861,314.500 40.957 C 314.500 41.053,314.762 41.363,315.083 41.644 C 315.404 41.926,315.667 42.218,315.667 42.294 C 315.667 42.370,315.967 42.753,316.333 43.146 C 316.700 43.540,317.000 43.927,317.000 44.008 C 317.000 44.088,317.300 44.451,317.667 44.814 C 318.033 45.177,318.333 45.543,318.333 45.628 C 318.333 46.139,318.967 46.333,320.638 46.333 L 322.333 46.333 322.333 38.417 L 322.333 30.500 320.333 30.500 L 318.333 30.500 318.333 34.833 C 318.333 37.611,318.274 39.167,318.167 39.167 C 318.075 39.167,318.000 39.067,318.000 38.944 C 318.000 38.822,317.777 38.503,317.505 38.236 C 317.232 37.969,317.007 37.685,317.005 37.605 C 317.002 37.526,316.700 37.161,316.333 36.794 C 315.967 36.427,315.667 36.056,315.667 35.969 C 315.667 35.882,315.404 35.563,315.083 35.261 C 314.762 34.958,314.499 34.644,314.499 34.564 C 314.498 34.483,314.202 34.117,313.840 33.750 C 313.479 33.383,313.179 32.995,313.175 32.887 C 313.170 32.779,312.998 32.554,312.791 32.387 C 312.584 32.220,312.279 31.872,312.113 31.614 C 311.432 30.555,311.303 30.500,309.500 30.500 L 307.833 30.500 307.833 38.417 M253.167 34.167 C 253.167 34.258,253.340 34.333,253.552 34.333 C 254.582 34.333,255.631 37.484,254.704 37.793 C 254.589 37.832,254.399 37.950,254.282 38.057 C 253.700 38.588,253.165 38.729,251.458 38.801 L 249.667 38.876 249.667 36.438 L 249.667 34.000 251.417 34.000 C 252.472 34.000,253.167 34.066,253.167 34.167 M218.846 35.833 C 218.930 35.833,219.000 36.006,219.000 36.218 C 219.000 36.430,219.110 36.749,219.245 36.926 C 219.379 37.104,219.492 37.381,219.495 37.542 C 219.498 37.702,219.568 37.833,219.652 37.833 C 219.736 37.833,219.855 38.133,219.917 38.500 C 219.979 38.867,220.098 39.167,220.181 39.167 C 220.265 39.167,220.333 39.310,220.333 39.486 C 220.333 39.662,220.427 39.843,220.542 39.890 C 220.656 39.936,219.794 39.980,218.625 39.987 C 217.311 39.995,216.500 39.936,216.500 39.833 C 216.500 39.742,216.556 39.666,216.625 39.665 C 216.761 39.664,217.163 38.875,217.172 38.592 C 217.175 38.495,217.323 38.117,217.500 37.750 C 217.677 37.383,217.825 36.952,217.828 36.792 C 217.831 36.631,217.908 36.500,218.000 36.500 C 218.092 36.500,218.167 36.386,218.167 36.248 C 218.167 35.840,218.571 35.264,218.637 35.578 C 218.667 35.718,218.761 35.833,218.846 35.833 M296.500 35.583 C 296.500 35.721,296.565 35.833,296.645 35.833 C 296.725 35.833,296.839 36.133,296.897 36.500 C 296.956 36.867,297.068 37.167,297.147 37.167 C 297.226 37.167,297.339 37.467,297.397 37.833 C 297.456 38.200,297.578 38.500,297.669 38.500 C 297.759 38.500,297.833 38.688,297.833 38.917 C 297.833 39.146,297.900 39.333,297.981 39.333 C 298.062 39.333,298.167 39.483,298.215 39.667 C 298.299 39.986,298.220 40.000,296.318 40.000 C 295.106 40.000,294.333 39.935,294.333 39.833 C 294.333 39.742,294.405 39.667,294.492 39.667 C 294.580 39.667,294.703 39.385,294.766 39.042 C 294.830 38.698,294.927 38.379,294.982 38.333 C 295.160 38.187,295.500 37.512,295.506 37.294 C 295.509 37.178,295.656 36.783,295.833 36.417 C 296.010 36.050,296.158 35.656,296.161 35.542 C 296.169 35.243,296.500 35.283,296.500 35.583 " stroke="none" fill="#d30c2c" fill-rule="evenodd"></path><path id="path2" d="" stroke="none" fill="#a46498" fill-rule="evenodd"></path><path id="path3" d="" stroke="none" fill="#a46498" fill-rule="evenodd"></path><path id="path4" d="" stroke="none" fill="#a46498" fill-rule="evenodd"></path></g></svg>